<svg xmlns="http://www.w3.org/2000/svg" viewBox="0 0 32 32" width="32" height="32">
  <rect width="32" height="32" fill="#050508" rx="6"/>
  
  <!-- Connection lines -->
  <line x1="16" y1="14" x2="22" y2="10" stroke="rgba(176,136,255,0.3)" stroke-width="0.8"/>
  <line x1="16" y1="14" x2="22" y2="19" stroke="rgba(176,136,255,0.3)" stroke-width="0.8"/>
  <line x1="16" y1="14" x2="10" y2="11" stroke="rgba(126,184,247,0.3)" stroke-width="0.8"/>
  <line x1="22" y1="10" x2="22" y2="19" stroke="rgba(176,136,255,0.2)" stroke-width="0.8"/>
  <line x1="10" y1="11" x2="9" y2="19" stroke="rgba(126,184,247,0.2)" stroke-width="0.8"/>
  <line x1="9" y1="19" x2="16" y2="14" stroke="rgba(126,184,247,0.2)" stroke-width="0.8"/>
  <line x1="16" y1="14" x2="14" y2="22" stroke="rgba(255,107,53,0.2)" stroke-width="0.8"/>
  <line x1="14" y1="22" x2="9" y2="19" stroke="rgba(255,107,53,0.2)" stroke-width="0.8"/>
  <line x1="22" y1="19" x2="14" y2="22" stroke="rgba(255,107,53,0.2)" stroke-width="0.8"/>

  <!-- Outer glow on center dot -->
  <circle cx="16" cy="14" r="4.5" fill="#b088ff" opacity="0.08"/>
  <circle cx="16" cy="14" r="3" fill="#b088ff" opacity="0.1"/>

  <!-- Dots — purple core -->
  <circle cx="16" cy="14" r="2.5" fill="#b088ff" opacity="0.95"/>
  <circle cx="22" cy="10" r="1.8" fill="#b088ff" opacity="0.8"/>
  <circle cx="22" cy="19" r="1.5" fill="#b088ff" opacity="0.7"/>

  <!-- Dots — blue mid -->
  <circle cx="10" cy="11" r="1.8" fill="#7eb8f7" opacity="0.8"/>
  <circle cx="9" cy="19" r="1.5" fill="#7eb8f7" opacity="0.7"/>

  <!-- Dots — ember old -->
  <circle cx="14" cy="22" r="1.5" fill="#ff6b35" opacity="0.7"/>

  <!-- Outlier dots -->
  <circle cx="6" cy="7" r="1" fill="#50505e" opacity="0.45"/>
  <circle cx="26" cy="6" r="0.9" fill="#50505e" opacity="0.35"/>
  <circle cx="27" cy="24" r="0.9" fill="#ff6b35" opacity="0.3"/>
</svg>
